<?xml version="1.0" encoding="UTF-8" standalone="no"?>
<!DOCTYPE svg PUBLIC "-//W3C//DTD SVG 1.1//EN" "http://www.w3.org/Graphics/SVG/1.1/DTD/svg11.dtd">
<svg width="100%" height="100%" viewBox="0 0 229 48" version="1.1" xmlns="http://www.w3.org/2000/svg" xmlns:xlink="http://www.w3.org/1999/xlink" xml:space="preserve" xmlns:serif="http://www.serif.com/" style="fill-rule:evenodd;clip-rule:evenodd;stroke-linejoin:round;stroke-miterlimit:2;">
    <g transform="matrix(1,0,0,1,8.05252,-16.3693)">
        <text x="47.518px" y="45.842px" style="font-family:'CrimsonText-Regular', 'Crimson Text';font-size:20px;fill:rgb(187,192,199);">Schema Cartographer</text>
    </g>
    <g id="Artboard3" transform="matrix(1,0,0,1,-0.369054,-0.246817)">
        <rect x="0.369" y="0.247" width="228.319" height="47.639" style="fill:none;"/>
        <clipPath id="_clip1">
            <rect x="0.369" y="0.247" width="228.319" height="47.639"/>
        </clipPath>
        <g clip-path="url(#_clip1)">
            <g id="dark-compass" transform="matrix(0.113968,0,0,0.113968,24.5575,24.313)">
                <g transform="matrix(1,0,0,1,-209,-209)">
                    <clipPath id="_clip2">
                        <rect x="0" y="0" width="418" height="418"/>
                    </clipPath>
                    <g clip-path="url(#_clip2)">
                        <g id="Artboard1" transform="matrix(1,0,0,1,-219.156,-80.302)">
                            <rect x="219.156" y="80.302" width="417.508" height="417.796" style="fill:none;"/>
                            <g id="Layer-3" serif:id="Layer 3" transform="matrix(1,0,0,1,0.1558,0.302)">
                                <g id="FG">
                                    <g transform="matrix(1,0,0,1,358.116,290.527)">
                                        <path d="M0,0.005C0.062,36.057 29.217,65.213 65.267,65.272C101.313,65.213 130.471,36.057 130.538,0.005C130.471,-36.042 101.313,-65.198 65.267,-65.262C29.217,-65.198 0.062,-36.042 0,0.005M-2.673,0.005C-2.673,-37.519 27.742,-67.93 65.267,-67.939C102.79,-67.93 133.206,-37.519 133.209,0.005C133.206,37.53 102.79,67.944 65.267,67.944C27.742,67.944 -2.673,37.53 -2.673,0.005" style="fill:rgb(187,192,199);fill-rule:nonzero;"/>
                                    </g>
                                    <g transform="matrix(1,0,0,1,450.472,164.444)">
                                        <path d="M0,252.188L-0.508,252.297L-2.876,241.168L-2.368,241.059L0,252.188ZM-53.63,-0.109L-51.26,11.02L-51.769,11.134L-54.134,0.001C-53.966,-0.033 -53.798,-0.075 -53.63,-0.109" style="fill:rgb(187,192,199);fill-rule:nonzero;"/>
                                    </g>
                                    <g transform="matrix(1,0,0,1,454.856,165.46)">
                                        <path d="M0,250.156L-0.504,250.277L-3.258,239.236L-2.752,239.111L0,250.156ZM-62.401,-0.121L-59.645,10.92L-60.154,11.041L-62.905,0.001L-62.401,-0.121Z" style="fill:rgb(187,192,199);fill-rule:nonzero;"/>
                                    </g>
                                    <g transform="matrix(1,0,0,1,459.204,166.632)">
                                        <path d="M0,247.816C-0.168,247.861 -0.332,247.912 -0.498,247.966L-3.635,237.023C-3.467,236.976 -3.303,236.921 -3.137,236.871L0,247.816ZM-71.101,-0.15L-67.962,10.79C-68.133,10.84 -68.296,10.89 -68.462,10.941L-71.599,0.001C-71.433,-0.049 -71.269,-0.1 -71.101,-0.15" style="fill:rgb(187,192,199);fill-rule:nonzero;"/>
                                    </g>
                                    <g transform="matrix(1,0,0,1,463.505,167.965)">
                                        <path d="M0,245.151L-0.496,245.315L-4.012,234.493L-3.516,234.329L0,245.151ZM-79.708,-0.164L-76.192,10.658L-76.687,10.818L-80.204,-0.004L-79.708,-0.164Z" style="fill:rgb(187,192,199);fill-rule:nonzero;"/>
                                    </g>
                                    <g transform="matrix(1,0,0,1,467.763,169.427)">
                                        <path d="M0,242.226C-0.164,242.285 -0.33,242.339 -0.492,242.398L-4.379,231.706L-3.893,231.535L0,242.226ZM-88.226,-0.172L-84.335,10.519L-84.823,10.696L-88.717,-0.001C-88.553,-0.059 -88.387,-0.114 -88.226,-0.172" style="fill:rgb(187,192,199);fill-rule:nonzero;"/>
                                    </g>
                                    <g transform="matrix(1,0,0,1,471.958,171.058)">
                                        <path d="M0,238.96L-0.482,239.159L-4.744,228.608L-4.264,228.411L0,238.96ZM-96.626,-0.199L-92.362,10.355L-92.845,10.552L-97.11,-0.001L-96.626,-0.199Z" style="fill:rgb(187,192,199);fill-rule:nonzero;"/>
                                    </g>
                                    <g transform="matrix(1,0,0,1,476.101,172.819)">
                                        <path d="M0,235.44L-0.479,235.647L-5.107,225.249C-4.949,225.18 -4.789,225.114 -4.629,225.042L0,235.44ZM-104.916,-0.207L-100.286,10.19C-100.446,10.262 -100.605,10.325 -100.765,10.397L-105.392,0.003L-104.916,-0.207Z" style="fill:rgb(187,192,199);fill-rule:nonzero;"/>
                                    </g>
                                    <g transform="matrix(1,0,0,1,480.171,174.74)">
                                        <path d="M0,231.599L-0.465,231.829L-5.455,221.605L-4.988,221.369L0,231.599ZM-113.07,-0.23L-108.083,9.996L-108.549,10.227L-113.536,0.001L-113.07,-0.23Z" style="fill:rgb(187,192,199);fill-rule:nonzero;"/>
                                    </g>
                                    <g transform="matrix(1,0,0,1,484.179,176.792)">
                                        <path d="M0,227.496L-0.461,227.736L-5.805,217.687L-5.344,217.443L0,227.496ZM-121.089,-0.24L-115.746,9.805L-116.208,10.049L-121.547,0.004L-121.089,-0.24Z" style="fill:rgb(187,192,199);fill-rule:nonzero;"/>
                                    </g>
                                    <g transform="matrix(1,0,0,1,488.108,178.99)">
                                        <path d="M0,223.101C-0.152,223.191 -0.297,223.283 -0.445,223.367L-6.139,213.511C-5.988,213.427 -5.836,213.333 -5.689,213.249L0,223.101ZM-128.964,-0.266L-123.271,9.586C-123.422,9.674 -123.57,9.767 -123.721,9.851L-129.405,-0.005C-129.258,-0.089 -129.111,-0.177 -128.964,-0.266" style="fill:rgb(187,192,199);fill-rule:nonzero;"/>
                                    </g>
                                    <g transform="matrix(1,0,0,1,491.96,181.318)">
                                        <path d="M0,218.439L-0.443,218.714L-6.473,209.066L-6.033,208.793L0,218.439ZM-136.668,-0.275L-130.639,9.371L-131.081,9.648L-137.111,0.002L-136.668,-0.275Z" style="fill:rgb(187,192,199);fill-rule:nonzero;"/>
                                    </g>
                                    <g transform="matrix(1,0,0,1,495.727,183.775)">
                                        <path d="M0,213.527L-0.428,213.818L-6.793,204.39L-6.361,204.091L0,213.527ZM-144.218,-0.291L-137.854,9.145L-138.285,9.435L-144.649,0.004L-144.218,-0.291Z" style="fill:rgb(187,192,199);fill-rule:nonzero;"/>
                                    </g>
                                    <g transform="matrix(1,0,0,1,499.405,186.379)">
                                        <path d="M0,208.323L-0.424,208.634L-7.109,199.428L-6.687,199.118L0,208.323ZM-151.583,-0.311L-144.895,8.893L-145.315,9.2L-152.003,-0.005L-151.583,-0.311Z" style="fill:rgb(187,192,199);fill-rule:nonzero;"/>
                                    </g>
                                    <g transform="matrix(1,0,0,1,502.997,189.085)">
                                        <path d="M0,202.906C-0.137,203.011 -0.277,203.117 -0.414,203.222L-7.42,194.258C-7.281,194.152 -7.141,194.047 -7.004,193.941L0,202.906ZM-158.773,-0.316L-151.77,8.654C-151.906,8.759 -152.044,8.859 -152.183,8.969L-159.189,0.003C-159.052,-0.106 -158.91,-0.207 -158.773,-0.316" style="fill:rgb(187,192,199);fill-rule:nonzero;"/>
                                    </g>
                                    <g transform="matrix(1,0,0,1,506.481,191.936)">
                                        <path d="M0,197.207L-0.396,197.543L-7.709,188.83L-7.312,188.49L0,197.207ZM-165.757,-0.336L-158.445,8.377L-158.844,8.718L-166.154,-0.004L-165.757,-0.336Z" style="fill:rgb(187,192,199);fill-rule:nonzero;"/>
                                    </g>
                                    <g transform="matrix(1,0,0,1,509.874,194.897)">
                                        <path d="M0,191.289C-0.129,191.406 -0.258,191.519 -0.391,191.637L-8,183.18L-7.613,182.836L0,191.289ZM-172.55,-0.348L-164.94,8.105L-165.329,8.45L-172.941,-0.003L-172.55,-0.348Z" style="fill:rgb(187,192,199);fill-rule:nonzero;"/>
                                    </g>
                                    <g transform="matrix(1,0,0,1,513.157,197.969)">
                                        <path d="M0,185.141L-0.377,185.502L-8.275,177.319L-7.904,176.953L0,185.141ZM-179.131,-0.361L-171.229,7.827L-171.603,8.188L-179.505,0.004C-179.381,-0.117 -179.257,-0.239 -179.131,-0.361" style="fill:rgb(187,192,199);fill-rule:nonzero;"/>
                                    </g>
                                    <g transform="matrix(1,0,0,1,516.331,201.153)">
                                        <path d="M0,178.77C-0.117,178.895 -0.24,179.018 -0.361,179.139L-8.545,171.237C-8.424,171.116 -8.301,170.989 -8.18,170.864L0,178.77ZM-185.494,-0.369L-177.31,7.534L-177.675,7.908L-185.857,0.005L-185.494,-0.369Z" style="fill:rgb(187,192,199);fill-rule:nonzero;"/>
                                    </g>
                                    <g transform="matrix(1,0,0,1,519.397,204.457)">
                                        <path d="M0,172.167C-0.117,172.294 -0.23,172.429 -0.344,172.554L-8.801,164.94L-8.455,164.55L0,172.167ZM-191.642,-0.387L-183.187,7.225L-183.532,7.612L-191.984,0.003L-191.642,-0.387Z" style="fill:rgb(187,192,199);fill-rule:nonzero;"/>
                                    </g>
                                    <g transform="matrix(1,0,0,1,522.343,207.862)">
                                        <path d="M0,165.356L-0.336,165.758L-9.049,158.444L-8.715,158.045L0,165.356ZM-197.542,-0.402L-188.826,6.913L-189.166,7.307L-197.878,-0.002L-197.542,-0.402Z" style="fill:rgb(187,192,199);fill-rule:nonzero;"/>
                                    </g>
                                    <g transform="matrix(1,0,0,1,525.173,211.358)">
                                        <path d="M0,158.363C-0.107,158.502 -0.213,158.64 -0.318,158.775L-9.283,151.771C-9.174,151.633 -9.072,151.494 -8.963,151.355L0,158.363ZM-203.221,-0.412L-194.256,6.592C-194.361,6.73 -194.466,6.869 -194.571,7.003L-203.537,0C-203.431,-0.135 -203.329,-0.277 -203.221,-0.412" style="fill:rgb(187,192,199);fill-rule:nonzero;"/>
                                    </g>
                                    <g transform="matrix(1,0,0,1,527.876,214.959)">
                                        <path d="M0,151.163L-0.311,151.583L-9.514,144.893L-9.205,144.477L0,151.163ZM-208.636,-0.42L-199.431,6.264L-199.738,6.688L-208.943,0L-208.636,-0.42Z" style="fill:rgb(187,192,199);fill-rule:nonzero;"/>
                                    </g>
                                    <g transform="matrix(1,0,0,1,530.458,218.64)">
                                        <path d="M0,143.796L-0.293,144.226L-9.729,137.86L-9.434,137.433L0,143.796ZM-213.817,-0.43L-204.383,5.935L-204.675,6.368L-214.107,0.007L-213.817,-0.43Z" style="fill:rgb(187,192,199);fill-rule:nonzero;"/>
                                    </g>
                                    <g transform="matrix(1,0,0,1,532.895,222.424)">
                                        <path d="M0,136.227L-0.273,136.668L-9.922,130.639L-9.645,130.2L0,136.227ZM-218.709,-0.441L-209.062,5.588L-209.339,6.029L-218.985,0L-218.709,-0.441Z" style="fill:rgb(187,192,199);fill-rule:nonzero;"/>
                                    </g>
                                    <g transform="matrix(1,0,0,1,535.22,226.285)">
                                        <path d="M0,128.511C-0.088,128.661 -0.178,128.808 -0.266,128.96L-10.119,123.267C-10.033,123.12 -9.941,122.974 -9.854,122.822L0,128.511ZM-223.37,-0.449L-213.512,5.24C-213.602,5.39 -213.69,5.538 -213.781,5.685L-223.634,-0.004C-223.548,-0.155 -223.456,-0.302 -223.37,-0.449" style="fill:rgb(187,192,199);fill-rule:nonzero;"/>
                                    </g>
                                    <g transform="matrix(1,0,0,1,537.392,230.231)">
                                        <path d="M0,120.623L-0.244,121.086L-10.289,115.742L-10.049,115.279L0,120.623ZM-227.733,-0.463L-217.685,4.876L-217.929,5.338L-227.976,-0.005L-227.733,-0.463Z" style="fill:rgb(187,192,199);fill-rule:nonzero;"/>
                                    </g>
                                    <g transform="matrix(1,0,0,1,539.435,234.234)">
                                        <path d="M0,112.612L-0.232,113.075L-10.461,108.087L-10.227,107.622L0,112.612ZM-231.828,-0.463L-221.602,4.524L-221.833,4.99L-232.061,0.004L-231.828,-0.463Z" style="fill:rgb(187,192,199);fill-rule:nonzero;"/>
                                    </g>
                                    <g transform="matrix(1,0,0,1,541.327,238.326)">
                                        <path d="M0,104.433C-0.068,104.593 -0.139,104.751 -0.205,104.912L-10.604,100.279C-10.531,100.122 -10.465,99.962 -10.395,99.808L0,104.433ZM-235.638,-0.479L-225.245,4.147C-225.316,4.307 -225.383,4.466 -225.451,4.625L-235.848,-0.004L-235.638,-0.479Z" style="fill:rgb(187,192,199);fill-rule:nonzero;"/>
                                    </g>
                                    <g transform="matrix(1,0,0,1,543.079,242.467)">
                                        <path d="M0,96.145L-0.193,96.627L-10.746,92.364L-10.549,91.881L0,96.145ZM-239.157,-0.482L-228.606,3.782L-228.803,4.261L-239.352,0.001L-239.157,-0.482Z" style="fill:rgb(187,192,199);fill-rule:nonzero;"/>
                                    </g>
                                    <g transform="matrix(1,0,0,1,544.689,246.668)">
                                        <path d="M0,87.739C-0.059,87.903 -0.113,88.067 -0.172,88.225L-10.869,84.337L-10.691,83.848L0,87.739ZM-242.398,-0.486L-231.705,3.404C-231.761,3.568 -231.82,3.732 -231.878,3.896L-242.571,0.006C-242.512,-0.163 -242.458,-0.326 -242.398,-0.486" style="fill:rgb(187,192,199);fill-rule:nonzero;"/>
                                    </g>
                                    <g transform="matrix(1,0,0,1,546.142,250.934)">
                                        <path d="M0,79.213L-0.158,79.709L-10.982,76.192L-10.822,75.695L0,79.213ZM-245.318,-0.496L-234.496,3.02L-234.655,3.516L-245.477,-0.001L-245.318,-0.496Z" style="fill:rgb(187,192,199);fill-rule:nonzero;"/>
                                    </g>
                                    <g transform="matrix(1,0,0,1,547.458,255.24)">
                                        <path d="M0,70.601C-0.047,70.773 -0.1,70.937 -0.148,71.101L-11.088,67.966C-11.037,67.798 -10.986,67.634 -10.939,67.466L0,70.601ZM-247.961,-0.5L-237.022,2.638C-237.068,2.802 -237.121,2.966 -237.168,3.138L-248.109,0C-248.062,-0.168 -248.007,-0.332 -247.961,-0.5" style="fill:rgb(187,192,199);fill-rule:nonzero;"/>
                                    </g>
                                    <g transform="matrix(1,0,0,1,548.602,259.588)">
                                        <path d="M0,61.901L-0.125,62.405L-11.166,59.653L-11.043,59.149L0,61.901ZM-250.274,-0.504L-239.233,2.252L-239.357,2.755L-250.398,0.004L-250.274,-0.504Z" style="fill:rgb(187,192,199);fill-rule:nonzero;"/>
                                    </g>
                                    <g transform="matrix(1,0,0,1,549.608,263.982)">
                                        <path d="M0,53.12L-0.111,53.628L-11.242,51.259L-11.133,50.755L0,53.12ZM-252.296,-0.508L-241.164,1.857C-241.202,2.025 -241.244,2.193 -241.277,2.365L-252.408,-0.005L-252.296,-0.508Z" style="fill:rgb(187,192,199);fill-rule:nonzero;"/>
                                    </g>
                                    <g transform="matrix(1,0,0,1,550.452,268.404)">
                                        <path d="M0,44.274C-0.029,44.448 -0.057,44.62 -0.086,44.792L-11.293,42.813C-11.264,42.641 -11.234,42.467 -11.207,42.295L0,44.274ZM-254.01,-0.518L-242.803,1.461C-242.834,1.632 -242.86,1.8 -242.889,1.977L-254.094,-0.002C-254.067,-0.174 -254.043,-0.346 -254.01,-0.518" style="fill:rgb(187,192,199);fill-rule:nonzero;"/>
                                    </g>
                                    <g transform="matrix(1,0,0,1,551.138,272.852)">
                                        <path d="M0,35.376L-0.072,35.894L-11.34,34.31L-11.268,33.798L0,35.376ZM-255.397,-0.518L-244.129,1.065L-244.201,1.583L-255.468,-0.001L-255.397,-0.518Z" style="fill:rgb(187,192,199);fill-rule:nonzero;"/>
                                    </g>
                                    <g transform="matrix(1,0,0,1,551.681,277.322)">
                                        <path d="M0,26.441C-0.018,26.613 -0.041,26.785 -0.061,26.959L-11.373,25.768C-11.355,25.596 -11.332,25.424 -11.313,25.253L0,26.441ZM-256.497,-0.518L-245.181,0.67C-245.198,0.843 -245.223,1.011 -245.24,1.187L-256.558,-0.001C-256.539,-0.174 -256.516,-0.346 -256.497,-0.518" style="fill:rgb(187,192,199);fill-rule:nonzero;"/>
                                    </g>
                                    <g transform="matrix(1,0,0,1,552.054,281.808)">
                                        <path d="M0,17.468L-0.033,17.989L-11.385,17.195L-11.352,16.675L0,17.468ZM-257.265,-0.521L-245.916,0.273L-245.949,0.789L-257.298,0L-257.265,-0.521Z" style="fill:rgb(187,192,199);fill-rule:nonzero;"/>
                                    </g>
                                    <g transform="matrix(1,0,0,1,552.276,286.302)">
                                        <path d="M0,8.48L-0.02,9L-11.385,8.601L-11.373,8.08L0,8.48ZM-257.725,-0.52L-246.356,-0.124L-246.374,0.392L-257.746,-0.003L-257.725,-0.52Z" style="fill:rgb(187,192,199);fill-rule:nonzero;"/>
                                    </g>
                                    <g transform="matrix(1,0,0,1,552.347,290.799)">
                                        <path d="M0,-0.517L0.004,-0.261L0,0L-11.377,0L-11.371,-0.261L-11.377,-0.517L0,-0.517ZM-257.887,-0.517L-246.513,-0.517L-246.515,-0.261L-246.513,0L-257.887,0L-257.892,-0.261L-257.887,-0.517Z" style="fill:rgb(187,192,199);fill-rule:nonzero;"/>
                                    </g>
                                    <g transform="matrix(1,0,0,1,552.257,295.301)">
                                        <path d="M0,-9.519L0.02,-9.002L-11.354,-8.607L-11.365,-9.124L0,-9.519ZM-257.726,-0.519L-246.354,-0.92L-246.336,-0.398L-257.706,0L-257.726,-0.519Z" style="fill:rgb(187,192,199);fill-rule:nonzero;"/>
                                    </g>
                                    <g transform="matrix(1,0,0,1,552.02,299.798)">
                                        <path d="M0,-18.511L0.033,-17.99L-11.318,-17.2L-11.352,-17.717L0,-18.511ZM-257.265,-0.522L-245.916,-1.315L-245.882,-0.795L-257.232,0L-257.265,-0.522Z" style="fill:rgb(187,192,199);fill-rule:nonzero;"/>
                                    </g>
                                    <g transform="matrix(1,0,0,1,551.624,304.281)">
                                        <path d="M0,-27.477C0.018,-27.305 0.043,-27.132 0.057,-26.964L-11.256,-25.775C-11.275,-25.948 -11.297,-26.116 -11.313,-26.288L0,-27.477ZM-256.501,-0.521L-245.183,-1.706C-245.167,-1.534 -245.141,-1.362 -245.125,-1.194L-256.438,0C-256.459,-0.178 -256.48,-0.346 -256.501,-0.521" style="fill:rgb(187,192,199);fill-rule:nonzero;"/>
                                    </g>
                                    <g transform="matrix(1,0,0,1,551.065,308.746)">
                                        <path d="M0,-36.408L0.072,-35.895L-11.195,-34.311L-11.268,-34.824L0,-36.408ZM-255.396,-0.518L-244.128,-2.096L-244.057,-1.584L-255.325,0L-255.396,-0.518Z" style="fill:rgb(187,192,199);fill-rule:nonzero;"/>
                                    </g>
                                    <g transform="matrix(1,0,0,1,550.366,313.191)">
                                        <path d="M0,-45.306C0.029,-45.134 0.057,-44.961 0.086,-44.789L-11.121,-42.81C-11.148,-42.987 -11.178,-43.155 -11.207,-43.327L0,-45.306ZM-254.008,-0.514L-242.803,-2.492C-242.774,-2.32 -242.749,-2.146 -242.717,-1.974L-253.924,0C-253.958,-0.168 -253.981,-0.34 -254.008,-0.514" style="fill:rgb(187,192,199);fill-rule:nonzero;"/>
                                    </g>
                                    <g transform="matrix(1,0,0,1,549.497,317.61)">
                                        <path d="M0,-54.136L0.111,-53.628L-11.021,-51.262C-11.055,-51.435 -11.094,-51.603 -11.131,-51.771L0,-54.136ZM-252.296,-0.508L-241.166,-2.873C-241.132,-2.705 -241.09,-2.537 -241.052,-2.369L-252.185,0L-252.296,-0.508Z" style="fill:rgb(187,192,199);fill-rule:nonzero;"/>
                                    </g>
                                    <g transform="matrix(1,0,0,1,548.477,321.993)">
                                        <path d="M0,-62.905L0.125,-62.401L-10.914,-59.649L-11.041,-60.153L0,-62.905ZM-250.273,-0.504L-239.23,-3.256L-239.108,-2.752L-250.149,0L-250.273,-0.504Z" style="fill:rgb(187,192,199);fill-rule:nonzero;"/>
                                    </g>
                                    <g transform="matrix(1,0,0,1,547.31,326.341)">
                                        <path d="M0,-71.601C0.049,-71.433 0.102,-71.269 0.148,-71.101L-10.791,-67.963C-10.838,-68.135 -10.889,-68.299 -10.939,-68.463L0,-71.601ZM-247.96,-0.5L-237.02,-3.635C-236.972,-3.467 -236.919,-3.307 -236.874,-3.135L-247.811,0C-247.859,-0.164 -247.914,-0.328 -247.96,-0.5" style="fill:rgb(187,192,199);fill-rule:nonzero;"/>
                                    </g>
                                    <g transform="matrix(1,0,0,1,545.983,330.644)">
                                        <path d="M0,-80.206L0.158,-79.71L-10.664,-76.194L-10.822,-76.69L0,-80.206ZM-245.317,-0.497L-234.497,-4.008L-234.337,-3.518L-245.16,0L-245.317,-0.497Z" style="fill:rgb(187,192,199);fill-rule:nonzero;"/>
                                    </g>
                                    <g transform="matrix(1,0,0,1,544.517,334.893)">
                                        <path d="M0,-88.711C0.062,-88.551 0.113,-88.383 0.174,-88.219L-10.52,-84.329C-10.578,-84.493 -10.635,-84.657 -10.697,-84.821L0,-88.711ZM-242.399,-0.486L-231.707,-4.377L-231.53,-3.888L-242.224,0C-242.286,-0.158 -242.34,-0.322 -242.399,-0.486" style="fill:rgb(187,192,199);fill-rule:nonzero;"/>
                                    </g>
                                    <g transform="matrix(1,0,0,1,542.886,339.094)">
                                        <path d="M0,-97.109L0.197,-96.626L-10.355,-92.366L-10.553,-92.845L0,-97.109ZM-239.159,-0.482L-228.61,-4.746L-228.413,-4.263L-238.961,0L-239.159,-0.482Z" style="fill:rgb(187,192,199);fill-rule:nonzero;"/>
                                    </g>
                                    <g transform="matrix(1,0,0,1,541.122,343.237)">
                                        <path d="M0,-105.39C0.07,-105.23 0.137,-105.075 0.205,-104.915L-10.188,-100.286L-10.396,-100.765L0,-105.39ZM-235.643,-0.478L-225.246,-5.103C-225.174,-4.949 -225.109,-4.789 -225.04,-4.629L-235.433,0C-235.504,-0.16 -235.57,-0.318 -235.643,-0.478" style="fill:rgb(187,192,199);fill-rule:nonzero;"/>
                                    </g>
                                    <g transform="matrix(1,0,0,1,539.202,347.31)">
                                        <path d="M0,-113.538L0.234,-113.072L-9.994,-108.085L-10.227,-108.551L0,-113.538ZM-231.827,-0.467L-221.601,-5.454L-221.37,-4.993L-231.595,0L-231.827,-0.467Z" style="fill:rgb(187,192,199);fill-rule:nonzero;"/>
                                    </g>
                                    <g transform="matrix(1,0,0,1,537.149,351.317)">
                                        <path d="M0,-121.549L0.242,-121.087L-9.801,-115.747L-10.047,-116.209L0,-121.549ZM-227.73,-0.463L-217.685,-5.806L-217.443,-5.343L-227.491,0L-227.73,-0.463Z" style="fill:rgb(187,192,199);fill-rule:nonzero;"/>
                                    </g>
                                    <g transform="matrix(1,0,0,1,534.954,355.245)">
                                        <path d="M0,-129.405C0.088,-129.258 0.182,-129.111 0.27,-128.96L-9.586,-123.271C-9.672,-123.422 -9.768,-123.57 -9.854,-123.72L0,-129.405ZM-223.367,-0.445L-213.511,-6.134C-213.424,-5.986 -213.334,-5.84 -213.247,-5.693L-223.1,0C-223.188,-0.148 -223.279,-0.299 -223.367,-0.445" style="fill:rgb(187,192,199);fill-rule:nonzero;"/>
                                    </g>
                                    <g transform="matrix(1,0,0,1,532.622,359.092)">
                                        <path d="M0,-137.109L0.277,-136.668L-9.371,-130.635L-9.648,-131.076L0,-137.109ZM-218.711,-0.441L-209.066,-6.468L-208.789,-6.023L-218.436,0L-218.711,-0.441Z" style="fill:rgb(187,192,199);fill-rule:nonzero;"/>
                                    </g>
                                    <g transform="matrix(1,0,0,1,530.165,362.87)">
                                        <path d="M0,-144.655L0.293,-144.222L-9.137,-137.862L-9.432,-138.29L0,-144.655ZM-213.814,-0.433L-204.377,-6.797L-204.088,-6.365L-213.519,0L-213.814,-0.433Z" style="fill:rgb(187,192,199);fill-rule:nonzero;"/>
                                    </g>
                                    <g transform="matrix(1,0,0,1,527.569,366.542)">
                                        <path d="M0,-152.003L0.307,-151.583L-8.898,-144.895L-9.203,-145.315L0,-152.003ZM-208.634,-0.42L-199.431,-7.106L-199.123,-6.69L-208.328,0L-208.634,-0.42Z" style="fill:rgb(187,192,199);fill-rule:nonzero;"/>
                                    </g>
                                    <g transform="matrix(1,0,0,1,524.856,370.134)">
                                        <path d="M0,-159.187C0.107,-159.052 0.209,-158.91 0.318,-158.775L-8.646,-151.772C-8.752,-151.906 -8.857,-152.045 -8.963,-152.184L0,-159.187ZM-203.22,-0.412L-194.254,-7.42C-194.15,-7.281 -194.044,-7.143 -193.94,-7.004L-202.903,0C-203.012,-0.139 -203.115,-0.273 -203.22,-0.412" style="fill:rgb(187,192,199);fill-rule:nonzero;"/>
                                    </g>
                                    <g transform="matrix(1,0,0,1,522.007,373.62)">
                                        <path d="M0,-166.156L0.34,-165.761L-8.377,-158.451L-8.713,-158.846L0,-166.156ZM-197.542,-0.403L-188.83,-7.713L-188.49,-7.315L-197.207,0L-197.542,-0.403Z" style="fill:rgb(187,192,199);fill-rule:nonzero;"/>
                                    </g>
                                    <g transform="matrix(1,0,0,1,519.054,377.015)">
                                        <path d="M0,-172.945L0.344,-172.554L-8.111,-164.946L-8.455,-165.333L0,-172.945ZM-191.64,-0.391L-183.186,-8.008L-182.843,-7.617L-191.296,0L-191.64,-0.391Z" style="fill:rgb(187,192,199);fill-rule:nonzero;"/>
                                    </g>
                                    <g transform="matrix(1,0,0,1,515.974,380.291)">
                                        <path d="M0,-179.503L0.361,-179.133L-7.822,-171.227L-8.184,-171.601L0,-179.503ZM-185.498,-0.369L-177.314,-8.275L-176.953,-7.902L-185.136,0C-185.254,-0.121 -185.378,-0.244 -185.498,-0.369" style="fill:rgb(187,192,199);fill-rule:nonzero;"/>
                                    </g>
                                    <g transform="matrix(1,0,0,1,512.784,383.471)">
                                        <path d="M0,-185.859C0.127,-185.737 0.248,-185.615 0.373,-185.498L-7.527,-177.314C-7.654,-177.436 -7.777,-177.557 -7.902,-177.675L0,-185.859ZM-179.132,-0.361L-171.228,-8.548L-170.856,-8.183L-178.758,0L-179.132,-0.361Z" style="fill:rgb(187,192,199);fill-rule:nonzero;"/>
                                    </g>
                                    <g transform="matrix(1,0,0,1,509.487,386.534)">
                                        <path d="M0,-191.984L0.387,-191.639L-7.227,-183.187C-7.352,-183.304 -7.482,-183.418 -7.613,-183.531L0,-191.984ZM-172.554,-0.347L-164.942,-8.8C-164.812,-8.687 -164.681,-8.574 -164.553,-8.457L-172.164,0L-172.554,-0.347Z" style="fill:rgb(187,192,199);fill-rule:nonzero;"/>
                                    </g>
                                    <g transform="matrix(1,0,0,1,506.087,389.479)">
                                        <path d="M0,-197.879L0.396,-197.547L-6.918,-188.825L-7.312,-189.166L0,-197.879ZM-165.759,-0.336L-158.445,-9.053L-158.05,-8.713L-165.363,0L-165.759,-0.336Z" style="fill:rgb(187,192,199);fill-rule:nonzero;"/>
                                    </g>
                                    <g transform="matrix(1,0,0,1,502.587,392.307)">
                                        <path d="M0,-203.534C0.137,-203.429 0.277,-203.328 0.414,-203.219L-6.594,-194.254C-6.73,-194.359 -6.867,-194.464 -7.006,-194.569L0,-203.534ZM-158.775,-0.31L-151.769,-9.281C-151.634,-9.176 -151.496,-9.07 -151.358,-8.961L-158.361,0C-158.5,-0.105 -158.638,-0.211 -158.775,-0.31" style="fill:rgb(187,192,199);fill-rule:nonzero;"/>
                                    </g>
                                    <g transform="matrix(1,0,0,1,498.989,395.013)">
                                        <path d="M0,-208.941L0.418,-208.634L-6.271,-199.434L-6.689,-199.74L0,-208.941ZM-151.587,-0.307L-144.899,-9.512L-144.479,-9.205L-151.163,0L-151.587,-0.307Z" style="fill:rgb(187,192,199);fill-rule:nonzero;"/>
                                    </g>
                                    <g transform="matrix(1,0,0,1,495.3,397.592)">
                                        <path d="M0,-214.104L0.434,-213.814L-5.93,-204.383L-6.361,-204.672L0,-214.104ZM-144.221,-0.291L-137.857,-9.726L-137.426,-9.427L-143.791,0L-144.221,-0.291Z" style="fill:rgb(187,192,199);fill-rule:nonzero;"/>
                                    </g>
                                    <g transform="matrix(1,0,0,1,491.517,400.032)">
                                        <path d="M0,-218.989L0.443,-218.712L-5.586,-209.061L-6.029,-209.343L0,-218.989ZM-136.666,-0.275L-130.637,-9.922L-130.196,-9.644L-136.225,0L-136.666,-0.275Z" style="fill:rgb(187,192,199);fill-rule:nonzero;"/>
                                    </g>
                                    <g transform="matrix(1,0,0,1,487.663,402.356)">
                                        <path d="M0,-223.632C0.15,-223.544 0.297,-223.456 0.449,-223.372L-5.242,-213.516C-5.391,-213.6 -5.539,-213.692 -5.689,-213.776L0,-223.632ZM-128.959,-0.265L-123.271,-10.117C-123.125,-10.033 -122.977,-9.939 -122.826,-9.855L-128.514,0C-128.664,-0.084 -128.811,-0.175 -128.959,-0.265" style="fill:rgb(187,192,199);fill-rule:nonzero;"/>
                                    </g>
                                    <g transform="matrix(1,0,0,1,483.718,404.528)">
                                        <path d="M0,-227.976L0.461,-227.732L-4.881,-217.687L-5.34,-217.931L0,-227.976ZM-121.086,-0.24L-115.745,-10.293L-115.285,-10.049L-120.626,0L-121.086,-0.24Z" style="fill:rgb(187,192,199);fill-rule:nonzero;"/>
                                    </g>
                                    <g transform="matrix(1,0,0,1,479.71,406.569)">
                                        <path d="M0,-232.059L0.465,-231.828L-4.523,-221.602L-4.992,-221.833L0,-232.059ZM-113.075,-0.23L-108.083,-10.461L-107.622,-10.225L-112.604,0L-113.075,-0.23Z" style="fill:rgb(187,192,199);fill-rule:nonzero;"/>
                                    </g>
                                    <g transform="matrix(1,0,0,1,475.626,408.465)">
                                        <path d="M0,-235.854C0.16,-235.783 0.314,-235.715 0.475,-235.644L-4.154,-225.246C-4.311,-225.322 -4.471,-225.385 -4.629,-225.456L0,-235.854ZM-104.916,-0.207L-100.286,-10.605L-99.811,-10.398L-104.441,0C-104.596,-0.072 -104.756,-0.138 -104.916,-0.207" style="fill:rgb(187,192,199);fill-rule:nonzero;"/>
                                    </g>
                                    <g transform="matrix(1,0,0,1,471.476,410.217)">
                                        <path d="M0,-239.358L0.482,-239.16L-3.781,-228.607L-4.26,-228.804L0,-239.358ZM-96.627,-0.199L-92.363,-10.748L-91.879,-10.55L-96.144,0L-96.627,-0.199Z" style="fill:rgb(187,192,199);fill-rule:nonzero;"/>
                                    </g>
                                    <g transform="matrix(1,0,0,1,467.274,411.825)">
                                        <path d="M0,-242.57C0.164,-242.516 0.328,-242.457 0.488,-242.398L-3.404,-231.706L-3.891,-231.878L0,-242.57ZM-88.229,-0.175L-84.334,-10.867L-83.847,-10.691L-87.738,0C-87.901,-0.058 -88.065,-0.113 -88.229,-0.175" style="fill:rgb(187,192,199);fill-rule:nonzero;"/>
                                    </g>
                                    <g transform="matrix(1,0,0,1,463.013,413.28)">
                                        <path d="M0,-245.479L0.492,-245.319L-3.021,-234.498L-3.516,-234.657L0,-245.479ZM-79.709,-0.16L-76.191,-10.986L-75.7,-10.822L-79.213,0L-79.709,-0.16Z" style="fill:rgb(187,192,199);fill-rule:nonzero;"/>
                                    </g>
                                    <g transform="matrix(1,0,0,1,458.708,414.599)">
                                        <path d="M0,-248.117C0.168,-248.067 0.332,-248.016 0.498,-247.966L-2.641,-237.026C-2.807,-237.076 -2.971,-237.127 -3.139,-237.177L0,-248.117ZM-71.103,-0.151L-67.966,-11.096C-67.798,-11.045 -67.637,-10.991 -67.466,-10.944L-70.605,0C-70.773,-0.055 -70.937,-0.106 -71.103,-0.151" style="fill:rgb(187,192,199);fill-rule:nonzero;"/>
                                    </g>
                                    <g transform="matrix(1,0,0,1,454.353,415.737)">
                                        <path d="M0,-250.398L0.508,-250.276L-2.248,-239.236L-2.754,-239.357L0,-250.398ZM-62.401,-0.121L-59.645,-11.166L-59.141,-11.041L-61.897,0L-62.401,-0.121Z" style="fill:rgb(187,192,199);fill-rule:nonzero;"/>
                                    </g>
                                    <g transform="matrix(1,0,0,1,449.966,416.741)">
                                        <path d="M0,-252.406L0.508,-252.297L-1.858,-241.163C-2.028,-241.201 -2.198,-241.239 -2.366,-241.277L0,-252.406ZM-53.628,-0.109L-51.263,-11.238L-50.754,-11.129L-53.121,0L-53.628,-0.109Z" style="fill:rgb(187,192,199);fill-rule:nonzero;"/>
                                    </g>
                                    <g transform="matrix(1,0,0,1,445.545,417.588)">
                                        <path d="M0,-254.098C0.17,-254.069 0.34,-254.043 0.514,-254.01L-1.463,-242.806C-1.633,-242.835 -1.807,-242.86 -1.979,-242.89L0,-254.098ZM-44.791,-0.084L-42.816,-11.291C-42.645,-11.262 -42.471,-11.236 -42.301,-11.207L-44.28,0C-44.448,-0.029 -44.62,-0.053 -44.791,-0.084" style="fill:rgb(187,192,199);fill-rule:nonzero;"/>
                                    </g>
                                    <g transform="matrix(1,0,0,1,441.096,418.275)">
                                        <path d="M0,-255.473L0.514,-255.402L-1.07,-244.13L-1.584,-244.205L0,-255.473ZM-35.894,-0.071L-34.31,-11.338L-33.797,-11.268L-35.379,0L-35.894,-0.071Z" style="fill:rgb(187,192,199);fill-rule:nonzero;"/>
                                    </g>
                                    <g transform="matrix(1,0,0,1,436.627,418.818)">
                                        <path d="M0,-256.558C0.172,-256.541 0.344,-256.516 0.516,-256.495L-0.67,-245.181C-0.846,-245.202 -1.016,-245.223 -1.189,-245.245L0,-256.558ZM-26.959,-0.061L-25.77,-11.373C-25.598,-11.358 -25.426,-11.332 -25.253,-11.315L-26.443,0C-26.615,-0.018 -26.787,-0.043 -26.959,-0.061" style="fill:rgb(187,192,199);fill-rule:nonzero;"/>
                                    </g>
                                    <g transform="matrix(1,0,0,1,432.139,419.19)">
                                        <path d="M0,-257.296L0.52,-257.266L-0.277,-245.919L-0.793,-245.948L0,-257.296ZM-17.989,-0.033L-17.195,-11.38L-16.678,-11.351L-17.469,0C-17.644,-0.011 -17.816,-0.025 -17.989,-0.033" style="fill:rgb(187,192,199);fill-rule:nonzero;"/>
                                    </g>
                                    <g transform="matrix(1,0,0,1,427.645,419.413)">
                                        <path d="M0,-257.746L0.521,-257.729L0.121,-246.357L-0.395,-246.378L0,-257.746ZM-9,-0.022L-8.604,-11.393L-8.084,-11.373L-8.48,0L-9,-0.022Z" style="fill:rgb(187,192,199);fill-rule:nonzero;"/>
                                    </g>
                                    <g transform="matrix(1,0,0,1,423.406,419.489)">
                                        <path d="M0,-257.897L0.26,-257.893L0.26,-246.516L0,-246.52L-0.264,-246.516L-0.264,-257.893L0,-257.897ZM-0.264,-0.003L-0.264,-11.38L0,-11.376L0.26,-11.38L0.26,-0.003L0,0L-0.264,-0.003Z" style="fill:rgb(187,192,199);fill-rule:nonzero;"/>
                                    </g>
                                    <g transform="matrix(1,0,0,1,418.645,419.392)">
                                        <path d="M0,-257.704L0.52,-257.725L0.916,-246.357L0.396,-246.336L0,-257.704ZM9,0.021L8.605,-11.352L9.121,-11.368L9.521,-0.001L9,0.021Z" style="fill:rgb(187,192,199);fill-rule:nonzero;"/>
                                    </g>
                                    <g transform="matrix(1,0,0,1,414.15,419.153)">
                                        <path d="M0,-257.229C0.173,-257.242 0.345,-257.25 0.52,-257.263L1.311,-245.911C1.139,-245.898 0.967,-245.89 0.794,-245.882L0,-257.229ZM17.989,0.034L17.196,-11.318L17.717,-11.343L18.51,0.004L17.989,0.034Z" style="fill:rgb(187,192,199);fill-rule:nonzero;"/>
                                    </g>
                                    <g transform="matrix(1,0,0,1,409.668,418.755)">
                                        <path d="M0,-256.432C0.173,-256.453 0.345,-256.478 0.513,-256.495L1.706,-245.182C1.531,-245.16 1.361,-245.139 1.189,-245.118L0,-256.432ZM26.959,0.063L25.77,-11.252C25.942,-11.269 26.114,-11.295 26.288,-11.31L27.475,0.002C27.303,0.02 27.131,0.045 26.959,0.063" style="fill:rgb(187,192,199);fill-rule:nonzero;"/>
                                    </g>
                                    <g transform="matrix(1,0,0,1,405.202,418.198)">
                                        <path d="M0,-255.321L0.515,-255.397L2.097,-244.129L1.58,-244.053L0,-255.321ZM35.892,0.076L34.308,-11.192L34.824,-11.262L36.408,0.006L35.892,0.076Z" style="fill:rgb(187,192,199);fill-rule:nonzero;"/>
                                    </g>
                                    <g transform="matrix(1,0,0,1,400.745,417.551)">
                                        <path d="M0,-254.019L1.984,-242.769C2.155,-242.802 2.327,-242.823 2.497,-242.852L0.513,-254.103C0.344,-254.078 0.172,-254.053 0,-254.019M43.335,-11.254C43.167,-11.225 42.992,-11.199 42.822,-11.17L44.804,0.084C44.978,0.051 45.15,0.029 45.32,-0.004L43.335,-11.254Z" style="fill:rgb(187,192,199);fill-rule:nonzero;"/>
                                    </g>
                                    <g transform="matrix(-0.901816,0.43212,0.43212,0.901816,355.484,171.432)">
                                        <path d="M-14.26,73.015L-13.621,73.015L-16.601,-3.263L-17.199,-3.254L-14.26,73.015Z" style="fill:rgb(187,192,199);fill-rule:nonzero;"/>
                                    </g>
                                    <g transform="matrix(-0.683777,0.729691,0.729691,0.683777,265.884,202.534)">
                                        <path d="M-46.565,111.292L-45.955,111.292L-48.242,-20.191L-48.852,-20.167L-46.565,111.292Z" style="fill:rgb(187,192,199);fill-rule:nonzero;"/>
                                    </g>
                                    <g transform="matrix(-0.357261,0.934005,0.934005,0.357261,303.599,279.714)">
                                        <path d="M-35.45,51.932L-34.826,51.932L-35.776,-24.41L-36.361,-24.397L-35.45,51.932Z" style="fill:rgb(187,192,199);fill-rule:nonzero;"/>
                                    </g>
                                    <g transform="matrix(0.419484,0.907763,0.907763,-0.419484,357.713,354.708)">
                                        <path d="M-34.265,22.747L-33.669,22.747L-35.569,-53.578L-36.168,-53.58L-34.265,22.747Z" style="fill:rgb(187,192,199);fill-rule:nonzero;"/>
                                    </g>
                                    <g transform="matrix(0.706291,0.707922,0.707922,-0.706291,397.719,381.313)">
                                        <path d="M-47.049,18.392L-46.435,18.392L-44.311,-113.38L-44.91,-113.433L-47.049,18.392Z" style="fill:rgb(187,192,199);fill-rule:nonzero;"/>
                                    </g>
                                    <g transform="matrix(0.913388,0.40709,0.40709,-0.913388,411.343,357.897)">
                                        <path d="M-15.688,2.549L-15.103,2.549L-11.935,-73.717L-12.557,-73.75L-15.688,2.549Z" style="fill:rgb(187,192,199);fill-rule:nonzero;"/>
                                    </g>
                                    <g transform="matrix(0.890263,-0.455447,-0.455447,-0.890263,432.717,360.827)">
                                        <path d="M17.575,3.195L18.205,3.195L13.219,-73.017L12.63,-72.941L17.575,3.195Z" style="fill:rgb(187,192,199);fill-rule:nonzero;"/>
                                    </g>
                                    <g transform="matrix(0.644901,-0.764266,-0.764266,-0.644901,449.982,388.576)">
                                        <path d="M51.382,19.936L51.985,19.936L42.907,-110.588L42.304,-110.588L51.382,19.936Z" style="fill:rgb(187,192,199);fill-rule:nonzero;"/>
                                    </g>
                                    <g transform="matrix(0.348699,-0.937235,-0.937235,-0.348699,492.284,358.245)">
                                        <path d="M36.116,24.373L36.704,24.373L35.054,-51.979L34.473,-51.941L36.116,24.373Z" style="fill:rgb(187,192,199);fill-rule:nonzero;"/>
                                    </g>
                                    <g transform="matrix(-0.421603,-0.906781,-0.906781,0.421603,546.415,276.768)">
                                        <path d="M35.654,53.576L36.252,53.576L34.172,-22.746L33.576,-22.742L35.654,53.576Z" style="fill:rgb(187,192,199);fill-rule:nonzero;"/>
                                    </g>
                                    <g transform="matrix(-0.739728,-0.672906,-0.672906,0.739728,580.356,197.778)">
                                        <path d="M49.898,112.3L50.751,112.3L43.412,-19.322L42.548,-19.261L49.898,112.3Z" style="fill:rgb(187,192,199);fill-rule:nonzero;"/>
                                    </g>
                                    <g transform="matrix(-0.915011,-0.403429,-0.403429,0.915011,489.578,169.311)">
                                        <path d="M12.103,73.753L12.685,73.753L15.584,-2.529L14.96,-2.562L12.103,73.753Z" style="fill:rgb(187,192,199);fill-rule:nonzero;"/>
                                    </g>
                                    <g transform="matrix(1,0,0,1,465.972,156.483)">
                                        <path d="M0,268.121C-74.056,291.639 -153.128,250.676 -176.644,176.621C-200.189,102.584 -159.199,23.493 -85.152,-0.038C-11.127,-23.535 67.977,17.409 91.533,91.458C115.02,165.535 74.057,244.607 0,268.121M58.59,29.654C0.932,-26.201 -91.079,-24.782 -146.964,32.901C-202.851,90.546 -201.392,182.592 -143.732,238.445C-86.103,294.322 5.936,292.881 61.82,235.238C117.707,177.594 116.264,85.556 58.59,29.654" style="fill:rgb(187,192,199);fill-rule:nonzero;"/>
                                    </g>
                                    <g transform="matrix(1,0,0,1,492.306,223.766)">
                                        <path d="M0,133.541C-36.889,171.617 -97.637,172.576 -135.683,135.701C-173.728,98.785 -174.701,38.03 -137.826,-0.016C-100.92,-38.085 -40.172,-39.041 -2.109,-2.158C35.949,34.765 36.875,95.494 0,133.541M-138.69,-0.855C-176.036,37.683 -175.079,99.211 -136.531,136.539C-97.986,173.908 -36.451,172.936 0.865,134.42C38.24,95.857 37.268,34.326 -1.279,-3.006C-39.811,-40.367 -101.343,-39.394 -138.69,-0.855" style="fill:rgb(187,192,199);fill-rule:nonzero;"/>
                                    </g>
                                    <g transform="matrix(1,0,0,1,483.235,232.567)">
                                        <path d="M0,115.926C-32.016,148.975 -84.752,149.842 -117.814,117.781C-150.85,85.774 -151.666,33.023 -119.637,-0.016C-87.64,-33.034 -34.888,-33.855 -1.84,-1.839C31.18,30.158 31.994,82.908 0,115.926M-120.41,-0.731C-152.829,32.726 -151.993,86.149 -118.537,118.53C-85.11,150.975 -31.682,150.121 0.771,116.68C33.16,83.205 32.34,29.794 -1.133,-2.597C-34.575,-35.049 -88.003,-34.196 -120.41,-0.731" style="fill:rgb(187,192,199);fill-rule:nonzero;"/>
                                    </g>
                                    <g transform="matrix(1,0,0,1,466.708,248.532)">
                                        <path d="M0,83.994C-23.165,107.91 -61.358,108.519 -85.303,85.338C-109.218,62.134 -109.814,23.947 -86.632,0.001C-63.45,-23.905 -25.241,-24.509 -1.297,-1.327C22.605,21.871 23.215,60.063 0,83.994M-87.117,-0.446C-110.566,23.749 -109.948,62.372 -85.746,85.808C-61.573,109.224 -22.964,108.635 0.471,84.433C23.965,60.261 23.348,21.638 -0.855,-1.796C-25.06,-25.23 -63.667,-24.641 -87.117,-0.446" style="fill:rgb(187,192,199);fill-rule:nonzero;"/>
                                    </g>
                                    <g transform="matrix(1,0,0,1,423.145,105.754)">
                                        <path d="M0,-25.452L12.271,-10.019L12.271,-20.718C12.271,-22.207 12.063,-23.22 11.633,-23.745C11.045,-24.453 10.061,-24.796 8.678,-24.772L8.678,-25.452L16.898,-25.452L16.898,-24.772C15.844,-24.638 15.139,-24.463 14.773,-24.252C14.414,-24.035 14.133,-23.687 13.932,-23.2C13.73,-22.723 13.633,-21.894 13.633,-20.718L13.633,0L13.008,0L-3.818,-20.718L-3.818,-4.899C-3.818,-3.472 -3.494,-2.503 -2.84,-2.001C-2.186,-1.5 -1.434,-1.249 -0.586,-1.249L0,-1.249L0,-0.57L-8.827,-0.57L-8.827,-1.249C-7.457,-1.259 -6.5,-1.544 -5.963,-2.093C-5.428,-2.648 -5.156,-3.578 -5.156,-4.899L-5.156,-22.463L-5.689,-23.123C-6.215,-23.779 -6.68,-24.218 -7.084,-24.425C-7.49,-24.633 -8.07,-24.748 -8.827,-24.772L-8.827,-25.452L0,-25.452Z" style="fill:rgb(187,192,199);fill-rule:nonzero;"/>
                                    </g>
                                    <g transform="matrix(1,0,0,1,219.156,307.599)">
                                        <path d="M0,-36.915L0.679,-36.915C0.716,-36.453 0.844,-36.062 1.063,-35.744C1.285,-35.426 1.621,-35.141 2.072,-34.9C2.22,-34.823 3.167,-34.437 4.916,-33.743L25.448,-25.947L25.448,-25.228L9.411,-19.067L25.448,-12.279L25.448,-11.593L5.137,-3.412C3.094,-2.584 1.857,-2 1.429,-1.672C1.001,-1.34 0.752,-0.785 0.679,0L0,0L0,-10.789L0.679,-10.789C0.704,-9.921 0.839,-9.343 1.075,-9.052C1.314,-8.769 1.607,-8.624 1.962,-8.624C2.428,-8.624 3.412,-8.923 4.916,-9.525L16.99,-14.405L7.559,-18.311L4.916,-17.283C3.474,-16.719 2.513,-16.286 2.031,-15.981C1.546,-15.678 1.198,-15.326 0.992,-14.926C0.782,-14.531 0.679,-13.947 0.679,-13.175L0,-13.175L0,-25.228L0.679,-25.228C0.69,-24.385 0.757,-23.777 0.879,-23.411C0.966,-23.156 1.114,-22.953 1.314,-22.809C1.516,-22.659 1.743,-22.587 2,-22.587C2.281,-22.587 3.142,-22.861 4.587,-23.411L16.365,-27.943L5.706,-32.003C4.605,-32.427 3.853,-32.692 3.448,-32.789C3.046,-32.89 2.673,-32.937 2.33,-32.937C1.827,-32.937 1.438,-32.764 1.15,-32.422C0.862,-32.08 0.704,-31.424 0.679,-30.459L0,-30.459L0,-36.915Z" style="fill:rgb(187,192,199);fill-rule:nonzero;"/>
                                    </g>
                                    <g transform="matrix(1,0,0,1,420.195,472.063)">
                                        <path d="M0,26.035L-0.201,17.742L0.549,17.742C0.906,19.82 1.771,21.494 3.162,22.762C4.551,24.025 6.053,24.656 7.67,24.656C8.92,24.656 9.902,24.328 10.631,23.658C11.355,22.992 11.721,22.226 11.721,21.353C11.721,20.805 11.598,20.316 11.338,19.887C10.984,19.314 10.416,18.746 9.633,18.181C9.059,17.775 7.73,17.062 5.65,16.035C2.74,14.603 0.775,13.254 -0.238,11.982C-1.242,10.709 -1.742,9.252 -1.742,7.613C-1.742,5.535 -0.936,3.746 0.686,2.246C2.305,0.748 4.367,0 6.863,0C7.643,0 8.387,0.076 9.08,0.236C9.779,0.4 10.652,0.695 11.709,1.137C12.293,1.385 12.777,1.506 13.156,1.506C13.475,1.506 13.811,1.385 14.168,1.137C14.52,0.892 14.809,0.521 15.027,0.019L15.707,0.019L15.707,9.412L15.027,9.412C14.49,6.769 13.449,4.754 11.914,3.365C10.377,1.976 8.729,1.283 6.955,1.283C5.584,1.283 4.488,1.658 3.678,2.4C2.863,3.148 2.457,4.017 2.457,5.01C2.457,5.598 2.611,6.168 2.924,6.717C3.236,7.265 3.713,7.787 4.35,8.283C4.984,8.779 6.109,9.426 7.725,10.221C9.988,11.334 11.617,12.281 12.605,13.062C13.598,13.847 14.355,14.721 14.885,15.689C15.42,16.654 15.686,17.719 15.686,18.881C15.686,20.861 14.963,22.549 13.506,23.943C12.049,25.34 10.213,26.035 8.002,26.035C7.193,26.035 6.41,25.939 5.65,25.74C5.074,25.598 4.371,25.32 3.547,24.926C2.721,24.527 2.148,24.328 1.816,24.328C1.498,24.328 1.248,24.426 1.064,24.623C0.881,24.82 0.711,25.293 0.549,26.035L0,26.035Z" style="fill:rgb(187,192,199);fill-rule:nonzero;"/>
                                    </g>
                                    <g transform="matrix(1,0,0,1,635.23,290.962)">
                                        <path d="M0,-3.645L-10.125,-3.645L-10.125,-3.153C-10.125,-1.577 -9.631,-0.43 -8.639,0.28C-7.646,0.989 -6.187,1.441 -4.254,1.634L-4.254,2.333L-17.281,2.333L-17.281,1.634C-15.863,1.49 -14.701,1.182 -13.793,0.714C-12.891,0.241 -12.277,-0.309 -11.967,-0.931C-11.654,-1.557 -11.502,-2.459 -11.502,-3.645L-18.512,-3.645C-19.879,-3.645 -20.719,-3.592 -21.023,-3.472C-21.328,-3.355 -21.584,-3.139 -21.777,-2.82C-21.973,-2.502 -22.07,-1.991 -22.07,-1.283L-22.07,0.208C-22.07,2.532 -21.531,4.394 -20.455,5.796C-19.381,7.194 -17.738,8.201 -15.539,8.808L-15.539,9.488L-23.447,8.371L-23.447,-13.133L-22.766,-13.133L-22.766,-12.309C-22.766,-11.586 -22.639,-11.007 -22.383,-10.563C-22.209,-10.245 -21.92,-9.999 -21.502,-9.831C-21.207,-9.695 -20.436,-9.628 -19.187,-9.628L-2.824,-9.628C-1.695,-9.628 -1.008,-9.662 -0.752,-9.72C-0.322,-9.845 0.006,-10.067 0.242,-10.399C0.584,-10.862 0.752,-11.499 0.752,-12.309L0.752,-13.133L1.434,-13.133L1.434,7.691L-5.924,7.691L-5.924,6.995C-4.125,6.638 -2.836,6.144 -2.053,5.501C-1.27,4.86 -0.695,3.948 -0.33,2.776C-0.107,2.093 0,0.806 0,-1.075L0,-3.645Z" style="fill:rgb(187,192,199);fill-rule:nonzero;"/>
                                    </g>
                                    <g transform="matrix(1,0,0,1,549.247,393.478)">
                                        <path d="M0,13.818L-2.811,11.138L-2.561,10.892C-1.756,11.461 -0.914,11.728 -0.033,11.687C0.848,11.644 1.555,11.357 2.086,10.822C2.504,10.412 2.719,9.972 2.74,9.509C2.76,9.048 2.623,8.672 2.334,8.386C2.154,8.205 1.947,8.086 1.725,8.029C1.416,7.957 1.037,7.957 0.596,8.029C0.27,8.086 -0.404,8.291 -1.439,8.634C-2.877,9.127 -3.975,9.33 -4.73,9.246C-5.486,9.156 -6.133,8.838 -6.678,8.295C-7.365,7.607 -7.687,6.746 -7.646,5.713C-7.609,4.679 -7.176,3.748 -6.35,2.922C-6.09,2.662 -5.816,2.443 -5.531,2.269C-5.25,2.089 -4.857,1.9 -4.365,1.695C-4.094,1.582 -3.893,1.461 -3.764,1.338C-3.656,1.232 -3.588,1.078 -3.553,0.882C-3.518,0.683 -3.545,0.463 -3.639,0.222L-3.41,0L-0.301,3.111L-0.529,3.334C-1.58,2.638 -2.59,2.312 -3.557,2.363C-4.529,2.41 -5.305,2.728 -5.891,3.318C-6.346,3.773 -6.586,4.255 -6.607,4.773C-6.631,5.289 -6.475,5.713 -6.148,6.043C-5.955,6.232 -5.717,6.371 -5.428,6.451C-5.141,6.529 -4.812,6.547 -4.439,6.502C-4.061,6.451 -3.477,6.295 -2.674,6.021C-1.559,5.642 -0.705,5.416 -0.117,5.349C0.469,5.281 1.014,5.316 1.506,5.461C2.006,5.605 2.443,5.871 2.83,6.252C3.488,6.908 3.807,7.713 3.783,8.656C3.762,9.599 3.389,10.435 2.652,11.172C2.389,11.441 2.094,11.668 1.775,11.851C1.541,11.992 1.219,12.136 0.809,12.277C0.408,12.42 0.146,12.543 0.041,12.65C-0.066,12.757 -0.117,12.877 -0.113,13.002C-0.105,13.129 -0.012,13.339 0.187,13.638L0,13.818Z" style="fill:rgb(187,192,199);fill-rule:nonzero;"/>
                                    </g>
                                    <g transform="matrix(1,0,0,1,544.122,404.424)">
                                        <path d="M0,6.678L-3.357,3.323L-3.521,3.487C-4.045,4.01 -4.258,4.555 -4.164,5.117C-4.072,5.682 -3.736,6.311 -3.164,7.02L-3.393,7.25L-7.703,2.936L-7.479,2.705C-6.957,3.123 -6.473,3.408 -6.018,3.551C-5.561,3.694 -5.178,3.713 -4.865,3.612C-4.557,3.51 -4.209,3.262 -3.813,2.867L-6.133,0.547C-6.588,0.09 -6.883,-0.166 -7.023,-0.23C-7.164,-0.291 -7.32,-0.299 -7.492,-0.261C-7.662,-0.22 -7.859,-0.084 -8.098,0.151L-8.592,0.643C-9.359,1.412 -9.801,2.207 -9.906,3.028C-10.01,3.848 -9.805,4.725 -9.275,5.657L-9.5,5.879L-11.75,2.891L-4.623,-4.23L-4.4,-4.008L-4.676,-3.734C-4.91,-3.496 -5.062,-3.26 -5.123,-3.027C-5.178,-2.869 -5.158,-2.689 -5.074,-2.494C-5.025,-2.351 -4.791,-2.072 -4.379,-1.662L1.043,3.762C1.418,4.137 1.652,4.352 1.762,4.416C1.943,4.52 2.129,4.555 2.314,4.522C2.582,4.481 2.85,4.326 3.117,4.059L3.391,3.785L3.611,4.01L-3.283,10.908L-5.723,8.469L-5.49,8.242C-4.773,8.719 -4.187,8.979 -3.713,9.028C-3.242,9.076 -2.746,8.963 -2.24,8.698C-1.939,8.543 -1.479,8.155 -0.85,7.532L0,6.678Z" style="fill:rgb(187,192,199);fill-rule:nonzero;"/>
                                    </g>
                                    <g transform="matrix(1,0,0,1,305.673,410.661)">
                                        <path d="M0,3.668L2.729,0.898L2.974,1.156C2.39,1.949 2.108,2.791 2.139,3.668C2.162,4.551 2.439,5.262 2.962,5.803C3.373,6.227 3.805,6.445 4.267,6.479C4.727,6.502 5.107,6.375 5.397,6.092C5.584,5.918 5.706,5.709 5.765,5.486C5.844,5.182 5.85,4.803 5.786,4.355C5.733,4.029 5.539,3.348 5.212,2.316C4.74,0.867 4.557,-0.234 4.655,-0.992C4.758,-1.742 5.087,-2.385 5.637,-2.916C6.336,-3.598 7.199,-3.902 8.235,-3.85C9.267,-3.791 10.19,-3.34 11.002,-2.498C11.258,-2.238 11.472,-1.967 11.647,-1.678C11.819,-1.389 12.006,-1 12.199,-0.498C12.307,-0.223 12.424,-0.02 12.546,0.107C12.648,0.213 12.801,0.287 12.998,0.326C13.194,0.367 13.417,0.342 13.657,0.254L13.878,0.48L10.715,3.543L10.495,3.314C11.208,2.27 11.546,1.268 11.517,0.299C11.484,-0.674 11.179,-1.455 10.601,-2.053C10.151,-2.516 9.67,-2.764 9.156,-2.791C8.639,-2.82 8.215,-2.678 7.881,-2.352C7.683,-2.162 7.54,-1.926 7.46,-1.637C7.378,-1.355 7.355,-1.025 7.397,-0.648C7.438,-0.271 7.582,0.318 7.844,1.119C8.206,2.242 8.418,3.1 8.479,3.689C8.536,4.273 8.489,4.818 8.334,5.313C8.186,5.807 7.91,6.242 7.521,6.619C6.856,7.266 6.05,7.57 5.104,7.535C4.165,7.498 3.334,7.107 2.609,6.363C2.347,6.092 2.123,5.799 1.94,5.479C1.808,5.238 1.666,4.912 1.531,4.502C1.399,4.096 1.275,3.836 1.17,3.725C1.064,3.619 0.948,3.563 0.823,3.57C0.698,3.57 0.488,3.668 0.184,3.855L0,3.668Z" style="fill:rgb(187,192,199);fill-rule:nonzero;"/>
                                    </g>
                                    <g transform="matrix(1,0,0,1,292.675,408.348)">
                                        <path d="M0,-7.832L0.226,-8.053C0.392,-7.91 0.562,-7.82 0.737,-7.785C0.917,-7.748 1.124,-7.766 1.354,-7.83C1.427,-7.853 1.872,-8.033 2.69,-8.367L12.14,-12.428L12.373,-12.191L8.982,-4.889L16.596,-7.83L16.815,-7.602L12.642,1.77C12.227,2.717 11.999,3.314 11.965,3.566C11.926,3.814 12.025,4.086 12.257,4.371L12.025,4.596L8.513,0.963L8.739,0.74C9.031,1.025 9.262,1.176 9.438,1.195C9.611,1.215 9.76,1.162 9.878,1.049C10.036,0.9 10.27,0.481 10.577,-0.213L13.055,-5.789L8.606,-4.033L8.05,-2.824C7.747,-2.166 7.563,-1.707 7.504,-1.445C7.439,-1.186 7.435,-0.955 7.496,-0.756C7.558,-0.551 7.712,-0.32 7.961,-0.061L7.733,0.158L3.809,-3.898L4.036,-4.121C4.315,-3.842 4.534,-3.658 4.697,-3.572C4.807,-3.521 4.923,-3.496 5.039,-3.514C5.15,-3.529 5.256,-3.576 5.342,-3.662C5.435,-3.752 5.635,-4.125 5.941,-4.779L8.433,-10.146L3.522,-8.037C3.013,-7.82 2.671,-7.666 2.506,-7.564C2.336,-7.471 2.196,-7.367 2.078,-7.252C1.913,-7.09 1.838,-6.902 1.852,-6.695C1.865,-6.484 2.024,-6.215 2.332,-5.883L2.104,-5.658L0,-7.832Z" style="fill:rgb(187,192,199);fill-rule:nonzero;"/>
                                    </g>
                                    <g transform="matrix(1,0,0,1,540.765,179.633)">
                                        <path d="M0,-10.021L-1.043,-0.845L2.504,-4.386C2.996,-4.878 3.26,-5.289 3.291,-5.602C3.334,-6.033 3.117,-6.468 2.654,-6.919L2.877,-7.143L5.602,-4.423L5.377,-4.2C4.984,-4.5 4.693,-4.679 4.5,-4.728C4.309,-4.776 4.102,-4.752 3.871,-4.659C3.65,-4.57 3.342,-4.326 2.951,-3.939L-3.91,2.923L-4.115,2.72L-2.828,-9.716L-8.068,-4.48C-8.543,-4.004 -8.754,-3.577 -8.701,-3.191C-8.65,-2.809 -8.486,-2.476 -8.207,-2.199L-8.014,-2.004L-8.238,-1.78L-11.162,-4.704L-10.938,-4.927C-10.479,-4.48 -10.066,-4.256 -9.709,-4.26C-9.354,-4.265 -8.951,-4.484 -8.516,-4.923L-2.693,-10.737L-2.652,-11.131C-2.607,-11.53 -2.615,-11.826 -2.682,-12.025C-2.75,-12.229 -2.9,-12.46 -3.145,-12.721L-2.92,-12.944L0,-10.021Z" style="fill:rgb(187,192,199);fill-rule:nonzero;"/>
                                    </g>
                                    <g transform="matrix(1,0,0,1,549.577,187.501)">
                                        <path d="M0,-8.136L-3.357,-4.778L-3.195,-4.615C-2.67,-4.091 -2.131,-3.875 -1.564,-3.972C-1.006,-4.062 -0.367,-4.396 0.336,-4.973L0.57,-4.741L-3.748,-0.428L-3.977,-0.659C-3.555,-1.176 -3.273,-1.664 -3.131,-2.119C-2.988,-2.574 -2.969,-2.956 -3.068,-3.27C-3.172,-3.578 -3.424,-3.928 -3.813,-4.323L-6.135,-2.001C-6.592,-1.546 -6.846,-1.253 -6.912,-1.111C-6.973,-0.972 -6.984,-0.818 -6.941,-0.643C-6.904,-0.476 -6.764,-0.274 -6.529,-0.037L-6.039,0.455C-5.266,1.223 -4.475,1.662 -3.65,1.772C-2.832,1.877 -1.955,1.666 -1.025,1.142L-0.797,1.365L-3.789,3.614L-10.914,-3.51L-10.686,-3.733L-10.416,-3.461C-10.176,-3.221 -9.938,-3.07 -9.709,-3.01C-9.545,-2.961 -9.367,-2.977 -9.172,-3.058C-9.029,-3.111 -8.756,-3.343 -8.342,-3.758L-2.92,-9.181C-2.549,-9.551 -2.33,-9.79 -2.264,-9.897C-2.164,-10.079 -2.131,-10.262 -2.16,-10.449C-2.197,-10.718 -2.357,-10.986 -2.623,-11.251L-2.895,-11.527L-2.67,-11.75L4.227,-4.851L1.791,-2.415L1.561,-2.648C2.037,-3.359 2.297,-3.949 2.346,-4.424C2.393,-4.896 2.281,-5.384 2.014,-5.896C1.859,-6.197 1.471,-6.657 0.85,-7.282L0,-8.136Z" style="fill:rgb(187,192,199);fill-rule:nonzero;"/>
                                    </g>
                                    <g transform="matrix(1,0,0,1,296.103,186.895)">
                                        <path d="M0,-5.567L9.175,-4.526L5.634,-8.067C5.141,-8.559 4.735,-8.823 4.418,-8.856C3.987,-8.896 3.55,-8.685 3.099,-8.217L2.875,-8.445L5.596,-11.165L5.823,-10.942C5.519,-10.551 5.341,-10.258 5.295,-10.067C5.243,-9.876 5.27,-9.665 5.358,-9.441C5.453,-9.213 5.694,-8.904 6.081,-8.518L12.945,-1.651L12.739,-1.448L0.306,-2.737L5.544,2.503C6.017,2.979 6.446,3.19 6.829,3.138C7.212,3.084 7.542,2.922 7.821,2.641L8.016,2.451L8.243,2.674L5.316,5.598L5.093,5.37C5.544,4.914 5.768,4.503 5.763,4.145C5.754,3.784 5.536,3.386 5.102,2.946L-0.718,-2.871L-1.113,-2.912C-1.505,-2.957 -1.806,-2.949 -2.007,-2.883C-2.209,-2.815 -2.44,-2.664 -2.699,-2.421L-2.923,-2.644L0,-5.567Z" style="fill:rgb(187,192,199);fill-rule:nonzero;"/>
                                    </g>
                                    <g transform="matrix(1,0,0,1,314.331,179.917)">
                                        <path d="M0,-16.819L0.222,-16.596C0.08,-16.429 -0.006,-16.254 -0.035,-16.075C-0.069,-15.9 -0.052,-15.693 0.017,-15.465C0.043,-15.392 0.23,-14.949 0.579,-14.14L4.796,-4.753L4.56,-4.517L-2.795,-7.786L0.266,-0.228L0.043,0L-9.396,-4.021C-10.351,-4.419 -10.952,-4.634 -11.201,-4.667C-11.45,-4.7 -11.722,-4.602 -12.005,-4.366L-12.229,-4.59L-8.657,-8.164L-8.429,-7.94C-8.708,-7.643 -8.858,-7.407 -8.876,-7.232C-8.893,-7.062 -8.842,-6.915 -8.721,-6.798C-8.57,-6.643 -8.146,-6.415 -7.444,-6.119L-1.832,-3.732L-3.658,-8.151L-4.875,-8.688C-5.541,-8.981 -6,-9.155 -6.262,-9.213C-6.524,-9.27 -6.757,-9.27 -6.954,-9.208C-7.157,-9.144 -7.385,-8.985 -7.643,-8.729L-7.866,-8.952L-3.874,-12.949L-3.645,-12.721C-3.921,-12.441 -4.101,-12.217 -4.183,-12.054C-4.238,-11.94 -4.26,-11.826 -4.238,-11.709C-4.222,-11.594 -4.17,-11.497 -4.085,-11.408C-3.994,-11.319 -3.616,-11.123 -2.953,-10.827L2.449,-8.423L0.26,-13.298C0.038,-13.806 -0.121,-14.144 -0.225,-14.31C-0.327,-14.473 -0.437,-14.615 -0.546,-14.729C-0.714,-14.896 -0.899,-14.969 -1.108,-14.949C-1.321,-14.932 -1.586,-14.77 -1.914,-14.453L-2.141,-14.68L0,-16.819Z" style="fill:rgb(187,192,199);fill-rule:nonzero;"/>
                                    </g>
                                    <g transform="matrix(-0.382532,-0.923942,-0.923942,0.382532,448.087,219.158)">
                                        <path d="M-3.698,-5.538C-5.91,-5.54 -7.705,-3.746 -7.704,-1.533C-7.706,0.679 -5.912,2.475 -3.698,2.475C-1.487,2.473 0.307,0.679 0.307,-1.532C0.307,-3.744 -1.486,-5.538 -3.698,-5.538" style="fill:rgb(187,192,199);fill-rule:nonzero;"/>
                                    </g>
                                    <g transform="matrix(-0.382896,-0.923792,-0.923792,0.382896,488.409,316.097)">
                                        <path d="M-3.697,-5.54C-5.911,-5.54 -7.705,-3.746 -7.704,-1.532C-7.705,0.682 -5.908,2.474 -3.697,2.473C-1.485,2.469 0.309,0.679 0.307,-1.536C0.309,-3.746 -1.484,-5.541 -3.697,-5.54" style="fill:rgb(187,192,199);fill-rule:nonzero;"/>
                                    </g>
                                    <g transform="matrix(-0.382727,-0.923862,-0.923862,0.382727,391.287,356.073)">
                                        <path d="M-3.703,-5.536C-5.912,-5.537 -7.709,-3.743 -7.708,-1.529C-7.706,0.682 -5.914,2.477 -3.703,2.475C-1.49,2.475 0.304,0.682 0.303,-1.53C0.304,-3.744 -1.488,-5.538 -3.703,-5.536" style="fill:rgb(187,192,199);fill-rule:nonzero;"/>
                                    </g>
                                    <g transform="matrix(-0.382425,-0.923986,-0.923986,0.382425,350.968,259.337)">
                                        <path d="M-3.701,-5.539C-5.913,-5.539 -7.707,-3.746 -7.708,-1.533C-7.708,0.678 -5.915,2.473 -3.701,2.473C-1.491,2.474 0.304,0.681 0.303,-1.533C0.305,-3.743 -1.488,-5.538 -3.701,-5.539" style="fill:rgb(187,192,199);fill-rule:nonzero;"/>
                                    </g>
                                    <g transform="matrix(-0.923968,-0.382469,-0.382469,0.923968,391.335,224.808)">
                                        <path d="M-1.531,-7.707C-3.743,-7.707 -5.537,-5.914 -5.537,-3.702C-5.535,-1.49 -3.743,0.306 -1.531,0.304C0.682,0.302 2.475,-1.491 2.475,-3.703C2.474,-5.914 0.682,-7.708 -1.531,-7.707" style="fill:rgb(187,192,199);fill-rule:nonzero;"/>
                                    </g>
                                    <g transform="matrix(-0.923792,-0.382896,-0.382896,0.923792,488.387,264.835)">
                                        <path d="M-1.534,-7.707C-3.744,-7.705 -5.54,-5.914 -5.539,-3.702C-5.54,-1.489 -3.749,0.304 -1.534,0.305C0.678,0.304 2.471,-1.487 2.471,-3.7C2.475,-5.911 0.679,-7.707 -1.534,-7.707" style="fill:rgb(187,192,199);fill-rule:nonzero;"/>
                                    </g>
                                    <g transform="matrix(-0.923887,-0.382664,-0.382664,0.923887,447.987,361.783)">
                                        <path d="M-1.531,-7.703C-3.742,-7.703 -5.538,-5.91 -5.536,-3.698C-5.537,-1.485 -3.744,0.308 -1.531,0.307C0.682,0.309 2.474,-1.486 2.474,-3.697C2.476,-5.91 0.684,-7.705 -1.531,-7.703" style="fill:rgb(187,192,199);fill-rule:nonzero;"/>
                                    </g>
                                    <g transform="matrix(-0.923932,-0.382558,-0.382558,0.923932,351.073,321.895)">
                                        <path d="M-1.53,-7.71C-3.744,-7.709 -5.537,-5.916 -5.535,-3.704C-5.536,-1.491 -3.741,0.304 -1.53,0.299C0.682,0.303 2.475,-1.492 2.477,-3.705C2.476,-5.916 0.68,-7.709 -1.53,-7.71" style="fill:rgb(187,192,199);fill-rule:nonzero;"/>
                                    </g>
                                    <g transform="matrix(1,0,0,1,404.458,134.708)">
                                        <path d="M0,136.891L18.918,-18.918L18.94,155.809L0,136.891Z" style="fill:rgb(187,192,199);"/>
                                    </g>
                                    <g transform="matrix(1,0,0,1,404.458,290.517)">
                                        <path d="M0,18.963L-155.932,0.03L18.94,0L0,18.963Z" style="fill:rgb(187,192,199);"/>
                                    </g>
                                    <g transform="matrix(1,0,0,1,442.34,446.355)">
                                        <path d="M0,-136.875L-18.918,18.938L-18.918,-155.813L0,-136.875Z" style="fill:rgb(187,192,199);"/>
                                    </g>
                                    <g transform="matrix(1,0,0,1,442.34,290.517)">
                                        <path d="M0,-18.918L155.81,0L-18.941,0L0,-18.918Z" style="fill:rgb(187,192,199);"/>
                                    </g>
                                    <g transform="matrix(1,0,0,1,408.57,222.137)">
                                        <path d="M0,68.404L-53.591,0L14.821,68.395L0,68.404Z" style="fill:rgb(187,192,199);"/>
                                    </g>
                                    <g transform="matrix(1,0,0,1,423.4,344.167)">
                                        <path d="M0,-38.798L-68.458,14.836L-0.01,-53.634L0,-38.798Z" style="fill:rgb(187,192,199);"/>
                                    </g>
                                    <g transform="matrix(1,0,0,1,438.23,358.937)">
                                        <path d="M0,-68.396L53.591,0.009L-14.82,-68.405L0,-68.396Z" style="fill:rgb(187,192,199);"/>
                                    </g>
                                    <g transform="matrix(1,0,0,1,423.4,236.945)">
                                        <path d="M0,38.765L68.401,-14.823L-0.01,53.588L0,38.765Z" style="fill:rgb(187,192,199);"/>
                                    </g>
                                </g>
                                <g id="BG">
                                    <g transform="matrix(1,0,0,1,423.387,229.698)">
                                        <path d="M0,121.674C-33.546,121.674 -60.839,94.381 -60.839,60.84C-60.839,27.298 -33.546,0 0,0C33.542,0 60.831,27.298 60.831,60.84C60.831,94.381 33.542,121.674 0,121.674" style="fill:rgb(94,100,110);stroke:rgb(187,192,199);stroke-width:1px;"/>
                                    </g>
                                    <g transform="matrix(-1,0,0,1,423.385,352.04)">
                                        <path d="M0.002,-123.009C33.916,-123.009 61.507,-95.42 61.507,-61.502C61.507,-27.59 33.916,0 0.002,0C-33.911,0 -61.505,-27.59 -61.505,-61.502C-61.505,-95.42 -33.911,-123.009 0.002,-123.009" style="fill:rgb(94,100,110);fill-rule:nonzero;stroke:rgb(187,192,199);stroke-width:1px;"/>
                                    </g>
                                    <g transform="matrix(1,0,0,1,423.24,136.649)">
                                        <path d="M0,308C-85.05,308 -154,239.051 -154,153.999C-154,68.947 -85.05,-0.001 0,-0.001C85.05,-0.001 154.001,68.947 154.001,153.999C154.001,239.051 85.05,308 0,308M0,-21.334C-96.833,-21.334 -175.333,57.165 -175.333,153.999C-175.333,250.834 -96.833,329.334 0,329.334C96.833,329.334 175.333,250.834 175.333,153.999C175.333,57.165 96.833,-21.334 0,-21.334" style="fill:rgb(94,100,110);fill-rule:nonzero;stroke:rgb(187,192,199);stroke-width:1px;"/>
                                    </g>
                                    <g transform="matrix(0.120564,-0.992706,-0.992706,-0.120564,489.123,230.154)">
                                        <path d="M-51.351,79.05L105.728,79.05L-46.784,41.446L-67.847,57.968L-51.351,79.05Z" style="fill:rgb(94,100,110);stroke:rgb(187,192,199);stroke-width:1px;stroke-linejoin:miter;stroke-miterlimit:10;"/>
                                    </g>
                                    <g transform="matrix(-0.992672,-0.120838,-0.120838,0.992672,270.055,263.436)">
                                        <path d="M-139.198,29.514L18.095,29.514L-134.405,-8.138L-155.492,8.353L-139.198,29.514Z" style="fill:rgb(94,100,110);stroke:rgb(187,192,199);stroke-width:1px;stroke-linejoin:miter;stroke-miterlimit:10;"/>
                                    </g>
                                    <g transform="matrix(-0.120539,0.992709,0.992709,0.120539,489.102,405.023)">
                                        <path d="M-89.209,-57.938L67.869,-57.938L-84.643,-95.542L-105.751,-79.026L-89.209,-57.938Z" style="fill:rgb(94,100,110);stroke:rgb(187,192,199);stroke-width:1px;stroke-linejoin:miter;stroke-miterlimit:10;"/>
                                    </g>
                                    <g transform="matrix(0.992706,0.12056,0.12056,-0.992706,445.123,263.479)">
                                        <path d="M-1.784,-8.396L155.3,-8.396L2.783,-46.001L-18.306,-29.46L-1.784,-8.396Z" style="fill:rgb(94,100,110);stroke:rgb(187,192,199);stroke-width:1px;stroke-linejoin:miter;stroke-miterlimit:10;"/>
                                    </g>
                                    <g transform="matrix(-0.616709,-0.787191,-0.787191,0.616709,404.15,219.931)">
                                        <path d="M-58.31,40.066L28.655,40.066L-55.781,19.245L-67.443,28.394L-58.31,40.066Z" style="fill:rgb(94,100,110);stroke:rgb(187,192,199);stroke-width:1px;stroke-linejoin:miter;stroke-miterlimit:10;"/>
                                    </g>
                                    <g transform="matrix(-0.787381,0.616467,0.616467,0.787381,374.222,361.217)">
                                        <path d="M-73.269,-13.628L13.816,-13.628L-70.614,-34.475L-82.289,-25.345L-73.269,-13.628Z" style="fill:rgb(94,100,110);stroke:rgb(187,192,199);stroke-width:1px;stroke-linejoin:miter;stroke-miterlimit:10;"/>
                                    </g>
                                    <g transform="matrix(0.616709,0.787191,0.787191,-0.616709,472.606,288.391)">
                                        <path d="M-19.507,-28.386L67.458,-28.386L-16.98,-49.205L-28.666,-40.063L-19.507,-28.386Z" style="fill:rgb(94,100,110);stroke:rgb(187,192,199);stroke-width:1px;stroke-linejoin:miter;stroke-miterlimit:10;"/>
                                    </g>
                                    <g transform="matrix(0.7872,-0.616698,-0.616698,-0.7872,442.647,292.688)">
                                        <path d="M-4.681,25.235L82.286,25.235L-2.154,4.413L-13.83,13.572L-4.681,25.235Z" style="fill:rgb(94,100,110);stroke:rgb(187,192,199);stroke-width:1px;stroke-linejoin:miter;stroke-miterlimit:10;"/>
                                    </g>
                                </g>
                            </g>
                        </g>
                    </g>
                </g>
            </g>
        </g>
    </g>
</svg>
