<?xml version="1.0" encoding="UTF-8"?>
<svg width="14px" height="8px" viewBox="0 0 14 8" version="1.1" xmlns="http://www.w3.org/2000/svg" xmlns:xlink="http://www.w3.org/1999/xlink">
    <!-- Generator: Sketch 61 (89581) - https://sketch.com -->
    <title>chevron-down</title>
    <desc>Created with Sketch.</desc>
    <defs>
        <rect id="path-1" x="32" y="151" width="449" height="850"></rect>
        <filter x="-0.1%" y="-0.1%" width="100.4%" height="100.2%" filterUnits="objectBoundingBox" id="filter-2">
            <feOffset dx="1" dy="1" in="SourceAlpha" result="shadowOffsetOuter1"></feOffset>
            <feColorMatrix values="0 0 0 0 0   0 0 0 0 0   0 0 0 0 0  0 0 0 0.5 0" type="matrix" in="shadowOffsetOuter1"></feColorMatrix>
        </filter>
        <polygon id="path-3" points="47 182 466 182 466 407 47 407"></polygon>
        <filter x="-0.1%" y="-0.2%" width="100.5%" height="100.9%" filterUnits="objectBoundingBox" id="filter-4">
            <feOffset dx="1" dy="1" in="SourceAlpha" result="shadowOffsetOuter1"></feOffset>
            <feComposite in="shadowOffsetOuter1" in2="SourceAlpha" operator="out" result="shadowOffsetOuter1"></feComposite>
            <feColorMatrix values="0 0 0 0 0   0 0 0 0 0   0 0 0 0 0  0 0 0 0.5 0" type="matrix" in="shadowOffsetOuter1"></feColorMatrix>
        </filter>
        <path d="M12,13.5857864 L6.70710678,8.29289322 C6.31658249,7.90236893 5.68341751,7.90236893 5.29289322,8.29289322 C4.90236893,8.68341751 4.90236893,9.31658249 5.29289322,9.70710678 L11.2928932,15.7071068 C11.6834175,16.0976311 12.3165825,16.0976311 12.7071068,15.7071068 L18.7071068,9.70710678 C19.0976311,9.31658249 19.0976311,8.68341751 18.7071068,8.29289322 C18.3165825,7.90236893 17.6834175,7.90236893 17.2928932,8.29289322 L12,13.5857864 Z" id="path-5"></path>
    </defs>
    <g id="Page-1-Copy" stroke="none" stroke-width="1" fill="none" fill-rule="evenodd">
        <g id="Dark-Chevron-Down" transform="translate(-54.000000, -195.000000)">
            <g id="chevron-down" transform="translate(49.000193, 187.000000)">
                <mask id="mask-6" fill="white">
                    <use xlink:href="#path-5"></use>
                </mask>
                <use id="Shape" fill="#464B52" fill-rule="nonzero" xlink:href="#path-5"></use>
                <g id="_COLORS/black" mask="url(#mask-6)" fill="#464B52" fill-rule="evenodd">
                    <rect id="Rectangle" x="0" y="0" width="24" height="24"></rect>
                </g>
            </g>
        </g>
    </g>
</svg>
