<?xml version="1.0" ?><!DOCTYPE svg  PUBLIC '-//W3C//DTD SVG 1.1//EN'  'http://www.w3.org/Graphics/SVG/1.1/DTD/svg11.dtd'>
<svg height="16px" id="Layer_1" style="enable-background:new 0 0 16 16;" version="1.1" viewBox="0 0 16 16" width="16px" xml:space="preserve" xmlns="http://www.w3.org/2000/svg" xmlns:xlink="http://www.w3.org/1999/xlink">
<path d="M8,0C3.588,0,0,3.589,0,8s3.589,8,8,8c4.411,0,8-3.589,8-8S12.411,0,8,0z M8,2c1.294,0,2.49,0.416,3.471,1.115l-8.356,8.357  C2.416,10.49,2,9.294,2,8C2,4.691,4.691,2,8,2z M8,14c-1.294,0-2.49-0.416-3.471-1.115l8.356-8.356C13.584,5.51,14,6.706,14,8  C14,11.309,11.309,14,8,14z"/>
</svg>
