<?xml version="1.0" encoding="UTF-8" standalone="no"?>
<!DOCTYPE svg PUBLIC "-//W3C//DTD SVG 1.1//EN" "http://www.w3.org/Graphics/SVG/1.1/DTD/svg11.dtd">
<svg width="100%" height="100%" viewBox="0 0 20 20" version="1.1" xmlns="http://www.w3.org/2000/svg" xmlns:xlink="http://www.w3.org/1999/xlink" xml:space="preserve" xmlns:serif="http://www.serif.com/" style="fill-rule:evenodd;clip-rule:evenodd;stroke-linejoin:round;stroke-miterlimit:2;">
    <g id="Artboard1" transform="matrix(1,0,0,1,-2,-2)">
        <rect x="2" y="2" width="20" height="20" style="fill:none;"/>
        <path id="path-5" d="M5,4C4.448,4 4,4.448 4,5L4,19C4,19.552 4.448,20 5,20L19,20C19.552,20 20,19.552 20,19L20,5C20,4.448 19.552,4 19,4L5,4ZM19,2C20.657,2 22,3.343 22,5L22,19C22,20.657 20.657,22 19,22L5,22C3.343,22 2,20.657 2,19L2,5C2,3.343 3.343,2 5,2L19,2ZM8.293,8.293C7.902,8.683 7.902,9.317 8.293,9.707L10.586,12L8.293,14.293C7.902,14.683 7.902,15.317 8.293,15.707C8.683,16.098 9.317,16.098 9.707,15.707L12,13.414L14.293,15.707C14.683,16.098 15.317,16.098 15.707,15.707C16.098,15.317 16.098,14.683 15.707,14.293L13.414,12L15.707,9.707C16.098,9.317 16.098,8.683 15.707,8.293C15.317,7.902 14.683,7.902 14.293,8.293L12,10.586L9.707,8.293C9.317,7.902 8.683,7.902 8.293,8.293Z" style="fill:rgb(70,75,82);fill-rule:nonzero;"/>
    </g>
</svg>
