<?xml version="1.0" encoding="UTF-8" standalone="no"?>
<!DOCTYPE svg PUBLIC "-//W3C//DTD SVG 1.1//EN" "http://www.w3.org/Graphics/SVG/1.1/DTD/svg11.dtd">
<svg width="100%" height="100%" viewBox="0 0 32 32" version="1.1" xmlns="http://www.w3.org/2000/svg" xmlns:xlink="http://www.w3.org/1999/xlink" xml:space="preserve" xmlns:serif="http://www.serif.com/" style="fill-rule:evenodd;clip-rule:evenodd;stroke-linejoin:round;stroke-miterlimit:2;">
    <path d="M24,32C28.4,32 32,28.4 32,24C32,19.6 28.4,16 24,16C19.6,16 16,19.6 16,24C16,28.4 19.6,32 24,32ZM24,18C27.3,18 30,20.7 30,24C30,25.3 29.6,26.5 28.9,27.5L20.5,19.1C21.5,18.4 22.8,18 24,18ZM19.1,20.5L27.5,28.9C24.8,30.8 21.1,30.2 19.1,27.5C17.6,25.4 17.6,22.6 19.1,20.5Z" style="fill:rgb(70,75,82);fill-rule:nonzero;"/>
    <path d="M15,10L15,15.6L8.3,22.3L9.7,23.7L17,16.4L17,10L15,10Z" style="fill:rgb(70,75,82);fill-rule:nonzero;"/>
    <path d="M16,32L16,30C13.9,30 11.8,29.5 9.9,28.6L10.8,27.1L9.1,26.1L8.2,27.6C6.7,26.6 5.5,25.3 4.5,23.9L5.9,23L4.9,21.3L3.4,22.2C2.6,20.6 2.2,18.9 2,17.1L6,17.1L6,15.1L2.1,15.1C2.2,13.3 2.7,11.6 3.5,10L5,10.9L6,9.2L4.4,8.2C5.4,6.7 6.7,5.5 8.1,4.5L9,5.9L10.7,4.9L9.9,3.4C11.5,2.6 13.2,2.2 15,2L15,6L17,6L17,2.1C18.8,2.2 20.5,2.7 22.1,3.5L21.2,5L22.9,6L23.8,4.5C25.3,5.5 26.5,6.8 27.5,8.2L26.1,9L27.1,10.7L28.6,9.8C29.5,11.7 30,13.8 30,15.9L32,15.9C32,7.1 24.8,-0.1 16,-0.1C7.2,-0.1 0,7.2 0,16C0,24.8 7.2,32 16,32Z" style="fill:rgb(70,75,82);fill-rule:nonzero;"/>
</svg>
