<?xml version="1.0" encoding="UTF-8" standalone="no"?>
<!DOCTYPE svg PUBLIC "-//W3C//DTD SVG 1.1//EN" "http://www.w3.org/Graphics/SVG/1.1/DTD/svg11.dtd">
<svg width="100%" height="100%" viewBox="0 0 20 20" version="1.1" xmlns="http://www.w3.org/2000/svg" xmlns:xlink="http://www.w3.org/1999/xlink" xml:space="preserve" xmlns:serif="http://www.serif.com/" style="fill-rule:evenodd;clip-rule:evenodd;stroke-linejoin:round;stroke-miterlimit:2;">
    <g id="path-1" transform="matrix(0.907474,0,0,1.11081,-0.895661,-3.3291)">
        <path d="M19,12L17,12L17,15L14,15L14,17L19,17L19,12ZM7,9L10,9L10,7L5,7L5,12L7,12L7,9ZM21,3L3,3C1.9,3 1,3.9 1,5L1,19C1,20.1 1.9,21 3,21L21,21C22.1,21 23,20.1 23,19L23,5C23,3.9 22.1,3 21,3ZM21,19.01L3,19.01L3,4.99L21,4.99L21,19.01Z" style="fill:rgb(187,192,199);"/>
    </g>
</svg>
