<?xml version="1.0" encoding="UTF-8" standalone="no"?>
<!DOCTYPE svg PUBLIC "-//W3C//DTD SVG 1.1//EN" "http://www.w3.org/Graphics/SVG/1.1/DTD/svg11.dtd">
<svg width="100%" height="100%" viewBox="0 0 64 64" version="1.1" xmlns="http://www.w3.org/2000/svg" xmlns:xlink="http://www.w3.org/1999/xlink" xml:space="preserve" xmlns:serif="http://www.serif.com/" style="fill-rule:evenodd;clip-rule:evenodd;stroke-linejoin:round;stroke-miterlimit:2;">
    <path d="M53.606,37.003C53.561,37.113 53.54,37.2 53.485,37.319C52.714,38.988 52.785,40.828 53.508,42.372C53.514,42.387 53.523,42.401 53.527,42.414C53.561,42.484 53.587,42.557 53.623,42.624C53.71,42.792 53.739,42.968 53.744,43.145C54.406,45.5 53.84,48.131 51.985,49.985C49.822,52.149 46.606,52.571 43.999,51.311L43.999,61C43.999,61.552 43.552,62.105 43,62.236L40.001,62.949C39.447,63.081 38.999,62.74 38.999,62.187L38.999,59.999L38.999,59C38.999,58.448 38.552,58.001 38,58.001C37.446,58.001 36.999,58.448 36.999,59L36.999,63C36.999,63.553 36.552,64 36,64L31.999,64C31.448,64 31,63.553 31,63L31,59.999L31,59C31,58.448 30.553,58.001 29.999,58.001C29.447,58.001 29,58.448 29,59L29,63C29,63.553 28.553,64 28.001,64L24,64C23.446,64 22.999,63.553 22.999,63L22.999,59.999L22.999,59C22.999,58.448 22.552,58.001 22,58.001C21.448,58.001 21.001,58.448 21.001,59L21.001,62.187C21.001,62.74 20.554,63.081 20,62.949L17,62.236C16.446,62.105 15.999,61.551 15.999,61L15.999,58.001L15.999,55L15.999,51.312C13.393,52.572 10.179,52.148 8.015,49.984C6.161,48.13 5.595,45.5 6.257,43.144C6.261,42.967 6.29,42.791 6.377,42.623C6.413,42.556 6.439,42.483 6.473,42.413C6.477,42.4 6.486,42.386 6.493,42.371C7.216,40.827 7.284,38.987 6.516,37.318C6.456,37.188 6.433,37.092 6.384,36.971C4.859,33.68 3.999,30.01 3.999,26.113C3.999,11.692 15.641,0 29.999,0C44.359,0 56.001,11.692 56.001,26.114C56.001,30.021 55.14,33.707 53.606,37.003ZM28.001,34C28.001,30.686 25.313,28 22,28L20,28C15.581,28 12.001,31.581 12.001,36L12.001,38C12.001,41.313 14.687,44.001 17.999,44.001L20,44.001C24.418,44.001 28.001,40.418 28.001,36L28.001,34ZM30.01,44.005C29.99,44.003 29.974,44.001 29.957,44.001C29.939,44.001 29.925,44.005 29.908,44.005C29.494,44.005 29.074,44.075 28.669,44.231C27.738,44.585 27.095,45.293 26.811,46.121L25.233,49.699C24.54,51.273 25.361,53.089 27.066,53.753C28.085,54.149 29.183,54.037 30.052,53.556C30.918,54.019 31.983,54.131 32.969,53.757C34.657,53.114 35.451,51.314 34.739,49.736L33.212,46.351C32.953,45.439 32.266,44.638 31.256,44.246C30.848,44.086 30.426,44.012 30.01,44.005ZM48,36C48,31.581 44.419,28 40.001,28L38,28C34.687,28 31.999,30.686 31.999,34L31.999,36C31.999,40.418 35.582,44.001 40.001,44.001L42.001,44.001C45.314,44.001 48,41.313 48,38L48,36Z" style="fill:rgb(70,75,82);"/>
</svg>
